<?xml version="1.0" encoding="UTF-8" standalone="no"?>
<svg
   xmlns:dc="http://purl.org/dc/elements/1.1/"
   xmlns:cc="http://creativecommons.org/ns#"
   xmlns:rdf="http://www.w3.org/1999/02/22-rdf-syntax-ns#"
   xmlns:svg="http://www.w3.org/2000/svg"
   xmlns="http://www.w3.org/2000/svg"
   xmlns:sodipodi="http://sodipodi.sourceforge.net/DTD/sodipodi-0.dtd"
   xmlns:inkscape="http://www.inkscape.org/namespaces/inkscape"
   version="1.1"
   id="svg2"
   xml:space="preserve"
   width="96.514664"
   height="23.345865"
   viewBox="0 0 96.514663 23.345864"
   sodipodi:docname="logos-grame.svg"
   inkscape:version="1.0.1 (3bc2e813f5, 2020-09-07)"><metadata
     id="metadata8"><rdf:RDF><cc:Work
         rdf:about=""><dc:format>image/svg+xml</dc:format><dc:type
           rdf:resource="http://purl.org/dc/dcmitype/StillImage" /><dc:title></dc:title></cc:Work></rdf:RDF></metadata><defs
     id="defs6"><clipPath
       clipPathUnits="userSpaceOnUse"
       id="clipPath20"><path
         d="M 2907.04,5748.56 4650.4,6980.65 3638.95,8411.84 h -500.49 l -1409.6,-996.21 z"
         id="path18" /></clipPath><clipPath
       clipPathUnits="userSpaceOnUse"
       id="clipPath32"><path
         d="M 1731.63,7411.72 3146.76,8411.84 H 1024.82 Z"
         id="path30" /></clipPath><clipPath
       clipPathUnits="userSpaceOnUse"
       id="clipPath44"><path
         d="M 1163.65,4516.46 2910.95,5751.33 1732.78,7418.4 0,6193.79 V 6163 Z"
         id="path42" /></clipPath><clipPath
       clipPathUnits="userSpaceOnUse"
       id="clipPath56"><path
         d="m 867.77,6801.2 867.77,613.28 -704.86,997.36 H 0 V 6187.91 Z"
         id="path54" /></clipPath><clipPath
       clipPathUnits="userSpaceOnUse"
       id="clipPath68"><path
         d="M 302.402,3907.79 1167.57,4519.23 0,6171.29 v -1835.6 z"
         id="path66" /></clipPath><clipPath
       clipPathUnits="userSpaceOnUse"
       id="clipPath80"><path
         d="M 3789.87,3969.98 5241.8,2518.04 5942.76,3219 v 1535.84 l -684.02,684.02 z"
         id="path78" /></clipPath><clipPath
       clipPathUnits="userSpaceOnUse"
       id="clipPath92"><path
         d="m 5238.41,2521.44 704.35,-704.36 v 1408.71 z"
         id="path90" /></clipPath><clipPath
       clipPathUnits="userSpaceOnUse"
       id="clipPath104"><path
         d="M 2315.91,2496.02 3767.84,1044.08 5245.18,2521.44 3793.25,3973.37 Z"
         id="path102" /></clipPath><clipPath
       clipPathUnits="userSpaceOnUse"
       id="clipPath116"><path
         d="M 3764.44,1047.46 4804.86,7.0625 H 5631.3 L 5942.76,318.531 V 1823.85 l -700.96,700.97 z"
         id="path114" /></clipPath><clipPath
       clipPathUnits="userSpaceOnUse"
       id="clipPath128"><path
         d="m 5624.52,7.0625 h 318.24 V 325.301 Z"
         id="path126" /></clipPath><clipPath
       clipPathUnits="userSpaceOnUse"
       id="clipPath140"><path
         d="M 1340.89,1521 2854.82,7.0625 H 4665.6 L 4738.62,80.082 2319.29,2499.41 Z"
         id="path138" /></clipPath><clipPath
       clipPathUnits="userSpaceOnUse"
       id="clipPath152"><path
         d="m 4658.82,7.0625 h 152.82 l -76.41,76.4141 z"
         id="path150" /></clipPath><clipPath
       clipPathUnits="userSpaceOnUse"
       id="clipPath164"><path
         d="m 0,7.0625 h 5942.77 v 8404.77 H 0 Z"
         id="path162" /></clipPath><clipPath
       clipPathUnits="userSpaceOnUse"
       id="clipPath174"><path
         d="m 0,7.0625 h 5950 v 8405.87 H 0 Z"
         id="path172" /></clipPath><clipPath
       clipPathUnits="userSpaceOnUse"
       id="clipPath200"><path
         d="m 0,7.0625 h 5942.77 v 8404.77 H 0 Z"
         id="path198" /></clipPath><clipPath
       clipPathUnits="userSpaceOnUse"
       id="clipPath210"><path
         d="m 0,7.0625 h 5950 v 8405.87 H 0 Z"
         id="path208" /></clipPath><clipPath
       clipPathUnits="userSpaceOnUse"
       id="clipPath254"><path
         d="m 0,7.0625 h 5942.77 v 8404.77 H 0 Z"
         id="path252" /></clipPath><clipPath
       clipPathUnits="userSpaceOnUse"
       id="clipPath264"><path
         d="m 0,7.0625 h 5950 v 8405.87 H 0 Z"
         id="path262" /></clipPath><clipPath
       clipPathUnits="userSpaceOnUse"
       id="clipPath288"><path
         d="m 0,7.0625 h 5942.77 v 8404.77 H 0 Z"
         id="path286" /></clipPath><clipPath
       clipPathUnits="userSpaceOnUse"
       id="clipPath300"><path
         d="m 0,7.0625 h 5950 v 8405.87 H 0 Z"
         id="path298" /></clipPath><clipPath
       clipPathUnits="userSpaceOnUse"
       id="clipPath326"><path
         d="m 0,7.0625 h 5942.77 v 8404.77 H 0 Z"
         id="path324" /></clipPath><clipPath
       clipPathUnits="userSpaceOnUse"
       id="clipPath414"><path
         d="m 0,7.0625 h 5950 v 8405.87 H 0 Z"
         id="path412" /></clipPath><clipPath
       clipPathUnits="userSpaceOnUse"
       id="clipPath424"><path
         d="m 0,7.0625 h 5942.77 v 8404.77 H 0 Z"
         id="path422" /></clipPath><clipPath
       clipPathUnits="userSpaceOnUse"
       id="clipPath442"><path
         d="m 0,7.0625 h 5950 v 8405.87 H 0 Z"
         id="path440" /></clipPath><clipPath
       clipPathUnits="userSpaceOnUse"
       id="clipPath456"><path
         d="m 0,7.0625 h 5942.77 v 8404.77 H 0 Z"
         id="path454" /></clipPath><clipPath
       clipPathUnits="userSpaceOnUse"
       id="clipPath466"><path
         d="m 0,7.0625 h 5950 v 8405.87 H 0 Z"
         id="path464" /></clipPath><clipPath
       clipPathUnits="userSpaceOnUse"
       id="clipPath476"><path
         d="m 0,7.0625 h 5942.77 v 8404.77 H 0 Z"
         id="path474" /></clipPath><clipPath
       clipPathUnits="userSpaceOnUse"
       id="clipPath486"><path
         d="m 0,7.0625 h 5950 v 8405.87 H 0 Z"
         id="path484" /></clipPath><clipPath
       clipPathUnits="userSpaceOnUse"
       id="clipPath496"><path
         d="m 0,7.0625 h 5942.77 v 8404.77 H 0 Z"
         id="path494" /></clipPath><clipPath
       clipPathUnits="userSpaceOnUse"
       id="clipPath506"><path
         d="m 0,7.0625 h 5950 v 8405.87 H 0 Z"
         id="path504" /></clipPath><clipPath
       clipPathUnits="userSpaceOnUse"
       id="clipPath518"><path
         d="m 0,7.0625 h 5942.77 v 8404.77 H 0 Z"
         id="path516" /></clipPath><clipPath
       clipPathUnits="userSpaceOnUse"
       id="clipPath528"><path
         d="m 0,7.0625 h 5950 v 8405.87 H 0 Z"
         id="path526" /></clipPath><clipPath
       clipPathUnits="userSpaceOnUse"
       id="clipPath538"><path
         d="m 1875.09,528.129 h 250.496 v 167 H 1875.09 Z"
         id="path536" /></clipPath><clipPath
       clipPathUnits="userSpaceOnUse"
       id="clipPath548"><path
         d="m 0,7.0625 h 5950 v 8405.87 H 0 Z"
         id="path546" /></clipPath><clipPath
       clipPathUnits="userSpaceOnUse"
       id="clipPath624"><path
         d="m 0,7.0625 h 5942.77 v 8404.77 H 0 Z"
         id="path622" /></clipPath><clipPath
       clipPathUnits="userSpaceOnUse"
       id="clipPath638"><path
         d="m 0,7.0625 h 5950 v 8405.87 H 0 Z"
         id="path636" /></clipPath><clipPath
       clipPathUnits="userSpaceOnUse"
       id="clipPath660"><path
         d="m 0,7.0625 h 5942.77 v 8404.77 H 0 Z"
         id="path658" /></clipPath><clipPath
       clipPathUnits="userSpaceOnUse"
       id="clipPath670"><path
         d="m 0,7.0625 h 5950 v 8405.87 H 0 Z"
         id="path668" /></clipPath><clipPath
       clipPathUnits="userSpaceOnUse"
       id="clipPath684"><path
         d="m 0,7.0625 h 5942.77 v 8404.77 H 0 Z"
         id="path682" /></clipPath><clipPath
       clipPathUnits="userSpaceOnUse"
       id="clipPath694"><path
         d="m 0,7.0625 h 5950 v 8405.87 H 0 Z"
         id="path692" /></clipPath><clipPath
       clipPathUnits="userSpaceOnUse"
       id="clipPath718"><path
         d="m 0,7.0625 h 5942.77 v 8404.77 H 0 Z"
         id="path716" /></clipPath><clipPath
       clipPathUnits="userSpaceOnUse"
       id="clipPath728"><path
         d="m 0,7.0625 h 5950 v 8405.87 H 0 Z"
         id="path726" /></clipPath><clipPath
       clipPathUnits="userSpaceOnUse"
       id="clipPath326-7"><path
         d="m 0,7.0625 h 5942.77 v 8404.77 H 0 Z"
         id="path324-8" /></clipPath><clipPath
       clipPathUnits="userSpaceOnUse"
       id="clipPath414-5"><path
         d="m 0,7.0625 h 5950 v 8405.87 H 0 Z"
         id="path412-7" /></clipPath><clipPath
       clipPathUnits="userSpaceOnUse"
       id="clipPath424-4"><path
         d="m 0,7.0625 h 5942.77 v 8404.77 H 0 Z"
         id="path422-1" /></clipPath><clipPath
       clipPathUnits="userSpaceOnUse"
       id="clipPath442-8"><path
         d="m 0,7.0625 h 5950 v 8405.87 H 0 Z"
         id="path440-5" /></clipPath><clipPath
       clipPathUnits="userSpaceOnUse"
       id="clipPath456-9"><path
         d="m 0,7.0625 h 5942.77 v 8404.77 H 0 Z"
         id="path454-7" /></clipPath><clipPath
       clipPathUnits="userSpaceOnUse"
       id="clipPath466-5"><path
         d="m 0,7.0625 h 5950 v 8405.87 H 0 Z"
         id="path464-3" /></clipPath><clipPath
       clipPathUnits="userSpaceOnUse"
       id="clipPath476-8"><path
         d="m 0,7.0625 h 5942.77 v 8404.77 H 0 Z"
         id="path474-8" /></clipPath><clipPath
       clipPathUnits="userSpaceOnUse"
       id="clipPath486-3"><path
         d="m 0,7.0625 h 5950 v 8405.87 H 0 Z"
         id="path484-1" /></clipPath><clipPath
       clipPathUnits="userSpaceOnUse"
       id="clipPath496-8"><path
         d="m 0,7.0625 h 5942.77 v 8404.77 H 0 Z"
         id="path494-9" /></clipPath><clipPath
       clipPathUnits="userSpaceOnUse"
       id="clipPath506-6"><path
         d="m 0,7.0625 h 5950 v 8405.87 H 0 Z"
         id="path504-4" /></clipPath><clipPath
       clipPathUnits="userSpaceOnUse"
       id="clipPath518-3"><path
         d="m 0,7.0625 h 5942.77 v 8404.77 H 0 Z"
         id="path516-3" /></clipPath><clipPath
       clipPathUnits="userSpaceOnUse"
       id="clipPath528-3"><path
         d="m 0,7.0625 h 5950 v 8405.87 H 0 Z"
         id="path526-8" /></clipPath><clipPath
       clipPathUnits="userSpaceOnUse"
       id="clipPath538-6"><path
         d="m 1875.09,528.129 h 250.496 v 167 H 1875.09 Z"
         id="path536-0" /></clipPath><clipPath
       clipPathUnits="userSpaceOnUse"
       id="clipPath624-4"><path
         d="m 0,7.0625 h 5942.77 v 8404.77 H 0 Z"
         id="path622-8" /></clipPath></defs><sodipodi:namedview
     pagecolor="#ffffff"
     bordercolor="#666666"
     borderopacity="1"
     objecttolerance="10"
     gridtolerance="10"
     guidetolerance="10"
     inkscape:pageopacity="0"
     inkscape:pageshadow="2"
     inkscape:window-width="2560"
     inkscape:window-height="1379"
     id="namedview4"
     showgrid="false"
     fit-margin-top="0"
     fit-margin-left="0"
     fit-margin-right="0"
     fit-margin-bottom="0"
     inkscape:zoom="2.4007726"
     inkscape:cx="125.11307"
     inkscape:cy="-23.049071"
     inkscape:window-x="0"
     inkscape:window-y="0"
     inkscape:window-maximized="1"
     inkscape:current-layer="g10"
     inkscape:document-rotation="0" /><g
     id="g10"
     inkscape:groupmode="layer"
     inkscape:label="SMC-22-court"
     transform="matrix(1.3333333,0,0,-1.3333333,-250.03194,603.64406)"><g
       id="g410"
       clip-path="url(#clipPath414-5)"
       transform="matrix(0.1,0,0,0.1,0.01496038,383.22056)" /><g
       id="g420"
       clip-path="url(#clipPath424-4)"
       transform="matrix(0.1,0,0,0.1,0.01496038,383.22056)"><path
         d="m 2207.66,636.699 v -25.066 h -4.96 l -0.77,5.57 h -0.47 c -2,-2.195 -6.75,-6.262 -15.23,-6.262 -13.57,0 -22.11,10.125 -22.11,24.11 0,14.457 9.51,25.48 23.63,25.48 11.02,0 18.05,-6.203 19.63,-14.398 h -6.75 c -1.58,5.031 -6.06,8.617 -12.88,8.617 -10.47,0 -17.29,-8.336 -17.29,-19.637 0,-10.535 6.13,-18.531 16.46,-18.531 7.58,0 14.54,3.793 14.54,11.781 v 3.305 h -14.33 v 5.031 h 20.53"
         style="fill:#000000;fill-opacity:1;fill-rule:nonzero;stroke:none"
         id="path432" /><path
         d="m 2248.9,611.629 -11.84,20.246 h -9.38 v -20.246 h -6.13 v 48.219 h 17.02 c 9.3,0 15.01,-5.371 15.01,-13.637 0,-6.961 -4.06,-11.57 -10.4,-13.301 l 12.61,-21.281 z m -21.22,25.695 h 10.06 c 6.06,0 9.64,3.504 9.64,8.606 0,5.441 -3.71,8.476 -9.64,8.476 h -10.06 v -17.082"
         style="fill:#000000;fill-opacity:1;fill-rule:nonzero;stroke:none"
         id="path434" /></g><g
       id="g438"
       clip-path="url(#clipPath442-8)"
       transform="matrix(0.1,0,0,0.1,0.01496038,383.22056)"><path
         d="m 2293.6,624.785 h -19.15 l -4.41,-13.156 h -6.68 l 16.8,48.219 h 7.72 l 16.81,-48.219 H 2298 Z m -1.87,5.371 -7.5,22.313 h -0.49 l -7.51,-22.313 h 15.5"
         style="fill:#000000;fill-opacity:1;fill-rule:nonzero;stroke:none"
         id="path444" /><path
         d="m 2362.33,611.629 h -6.13 v 37.055 h -0.41 l -14.2,-31.547 h -6.75 l -14.25,31.547 h -0.56 v -37.055 h -6.12 v 48.219 h 7.98 l 16.05,-36.16 h 0.49 l 15.97,36.16 h 7.93 v -48.219"
         style="fill:#000000;fill-opacity:1;fill-rule:nonzero;stroke:none"
         id="path446" /><path
         d="m 2407.64,617.207 v -5.582 h -31.13 v 48.219 h 30.44 v -5.582 h -24.32 V 638.84 h 21.43 v -5.442 h -21.43 v -16.191 h 25.01"
         style="fill:#000000;fill-opacity:1;fill-rule:nonzero;stroke:none"
         id="path448" /></g><g
       id="g452"
       clip-path="url(#clipPath456-9)"
       transform="matrix(0.1,0,0,0.1,0.01496038,383.22056)"><path
         d="m 2186.99,528.297 c -13.85,0 -22.87,10.332 -22.87,24.586 0,14.336 9.09,25.008 22.87,25.008 10.26,0 18.32,-5.789 20.05,-15.774 h -6.61 c -1.66,5.992 -6.41,9.985 -13.37,9.985 -10.12,0 -16.6,-8.676 -16.6,-19.219 0,-10.809 6.75,-18.797 16.53,-18.797 7.23,0 12.33,3.922 14.19,9.574 h 6.62 c -1.8,-9.293 -10.14,-15.363 -20.81,-15.363"
         style="fill:#000000;fill-opacity:1;fill-rule:nonzero;stroke:none"
         id="path458" /></g><g
       id="g462"
       clip-path="url(#clipPath466-5)"
       transform="matrix(0.1,0,0,0.1,0.01496038,383.22056)"><path
         d="m 2257.37,577.203 v -48.219 h -6.74 l -25.49,37.606 h -0.48 v -37.606 h -6.13 v 48.219 h 6.82 l 25.4,-37.605 h 0.49 v 37.605 h 6.13"
         style="fill:#000000;fill-opacity:1;fill-rule:nonzero;stroke:none"
         id="path468" /></g><g
       id="g472"
       clip-path="url(#clipPath476-8)"
       transform="matrix(0.1,0,0,0.1,0.01496038,383.22056)"><path
         d="m 2292.29,528.297 c -13.86,0 -22.88,10.332 -22.88,24.586 0,14.336 9.09,25.008 22.88,25.008 10.26,0 18.32,-5.789 20.04,-15.774 h -6.61 c -1.65,5.992 -6.41,9.985 -13.36,9.985 -10.13,0 -16.61,-8.676 -16.61,-19.219 0,-10.809 6.76,-18.797 16.54,-18.797 7.23,0 12.33,3.922 14.19,9.574 h 6.62 c -1.8,-9.293 -10.14,-15.363 -20.81,-15.363"
         style="fill:#000000;fill-opacity:1;fill-rule:nonzero;stroke:none"
         id="path478" /></g><g
       id="g482"
       clip-path="url(#clipPath486-3)"
       transform="matrix(0.1,0,0,0.1,0.01496038,383.22056)"><path
         d="m 2372.25,528.988 h -6.13 v 37.059 h -0.41 l -14.2,-31.547 h -6.74 l -14.26,31.547 h -0.56 v -37.059 h -6.12 v 48.219 h 7.99 l 16.04,-36.168 h 0.49 l 15.97,36.168 h 7.93 v -48.219"
         style="fill:#000000;fill-opacity:1;fill-rule:nonzero;stroke:none"
         id="path488" /></g><g
       id="g492"
       clip-path="url(#clipPath496-8)"
       transform="matrix(0.1,0,0,0.1,0.01496038,383.22056)"><path
         d="m 2393.8,531.262 c 0,-5.582 -3.73,-9.305 -6.82,-11.231 l -1.73,2.137 c 2.07,1.727 3.86,3.934 3.92,6.477 -1.91,-0.207 -3.85,1.308 -3.85,3.855 0,2.547 1.79,4.203 4.13,4.203 2.83,0 4.35,-2.336 4.35,-5.441"
         style="fill:#000000;fill-opacity:1;fill-rule:nonzero;stroke:none"
         id="path498" /></g><g
       id="g502"
       clip-path="url(#clipPath506-6)"
       transform="matrix(0.1,0,0,0.1,0.01496038,383.22056)"><path
         d="m 2456.95,534.637 v -5.649 h -30.93 v 48.219 h 6.13 v -42.57 h 24.8"
         style="fill:#000000;fill-opacity:1;fill-rule:nonzero;stroke:none"
         id="path508" /><path
         d="m 2496.82,577.203 -17.36,-25.418 v -22.801 h -6.27 v 22.801 l -17.42,25.418 h 7.58 l 12.74,-18.598 h 0.41 l 12.74,18.598 h 7.58"
         style="fill:#000000;fill-opacity:1;fill-rule:nonzero;stroke:none"
         id="path510" /></g><g
       id="g514"
       clip-path="url(#clipPath518-3)"
       transform="matrix(0.1,0,0,0.1,0.01496038,383.22056)"><path
         d="m 2500.46,553.098 c 0,14.117 10.2,24.797 23.84,24.797 13.49,0 23.75,-10.68 23.75,-24.797 0,-14.059 -10.11,-24.801 -23.75,-24.801 -13.64,0 -23.84,10.613 -23.84,24.801 m 41.27,0 c 0,10.742 -7.51,19.007 -17.43,19.007 -9.99,0 -17.5,-8.265 -17.5,-19.007 0,-10.743 7.51,-19.008 17.5,-19.008 9.99,0 17.43,8.265 17.43,19.008"
         style="fill:#000000;fill-opacity:1;fill-rule:nonzero;stroke:none"
         id="path520" /></g><g
       id="g524"
       clip-path="url(#clipPath528-3)"
       transform="matrix(0.1,0,0,0.1,0.01496038,383.22056)"><path
         d="m 2598.95,577.203 v -48.219 h -6.75 l -25.49,37.606 h -0.48 v -37.606 h -6.12 v 48.219 h 6.81 l 25.42,-37.605 h 0.48 v 37.605 h 6.13"
         style="fill:#000000;fill-opacity:1;fill-rule:nonzero;stroke:none"
         id="path530" /></g><g
       id="g534"
       clip-path="url(#clipPath538-6)"
       transform="matrix(0.1,0,0,0.1,0.01496038,383.22056)"><path
         d="m 1937.71,569.875 c -11.53,0 -20.87,9.348 -20.87,20.875 0,11.531 9.34,20.875 20.87,20.875 11.53,0 20.88,-9.344 20.88,-20.875 0,-11.527 -9.35,-20.875 -20.88,-20.875 m 167,83.5 c -11.52,0 -20.87,9.355 -20.87,20.875 0,11.531 -9.35,20.875 -20.88,20.875 -11.52,0 -20.87,-9.344 -20.87,-20.875 0,-11.52 -9.35,-20.875 -20.88,-20.875 v 0 c -11.53,0 -20.87,9.355 -20.87,20.875 0,11.531 -9.35,20.875 -20.88,20.875 -11.53,0 -20.87,-9.344 -20.87,-20.875 0,-11.52 -9.35,-20.875 -20.88,-20.875 -11.53,0 -20.87,-9.344 -20.87,-20.875 v -0.039 c -0.02,-11.512 -9.37,-20.836 -20.88,-20.836 -11.53,0 -20.87,-9.344 -20.87,-20.875 0,-11.527 9.34,-20.875 20.87,-20.875 11.53,0 20.88,-9.344 20.88,-20.875 0,-11.527 9.34,-20.871 20.87,-20.871 11.53,0 20.88,9.344 20.88,20.871 0,11.531 9.34,20.875 20.87,20.875 11.53,0 20.88,9.348 20.88,20.875 0,0.012 0,0.031 0,0.043 0.02,11.508 9.35,20.832 20.87,20.832 v 0 c 11.53,0 20.88,-9.344 20.88,-20.875 0,-11.527 9.35,-20.875 20.87,-20.875 11.53,0 20.88,9.348 20.88,20.875 0,11.531 9.35,20.875 20.87,20.875 11.53,0 20.88,9.348 20.88,20.875 0,11.531 -9.35,20.875 -20.88,20.875"
         style="fill:#000000;fill-opacity:1;fill-rule:nonzero;stroke:none"
         id="path540" /></g></g></svg>
